<?xml version="1.0" encoding="utf-8"?>
<!-- Generator: Adobe Illustrator 17.0.0, SVG Export Plug-In . SVG Version: 6.00 Build 0)  -->
<!DOCTYPE svg PUBLIC "-//W3C//DTD SVG 1.1//EN" "http://www.w3.org/Graphics/SVG/1.1/DTD/svg11.dtd">
<svg version="1.1" id="Layer_1" xmlns="http://www.w3.org/2000/svg" xmlns:xlink="http://www.w3.org/1999/xlink" x="0px" y="0px"
	 width="500px" height="250px" viewBox="0 0 500 250" enable-background="new 0 0 500 250" xml:space="preserve">
<path fill="#FFFFFF" stroke="#8CC63E" stroke-width="2.7299" stroke-miterlimit="10" d="M243.521,46.844l23.829,23.829
	c9.765,9.765,9.829,24.746,0.065,34.511l-1.121,1.121l-0.747,0.748c-9.765,9.765-25.494,10.448-35.259,0.683l-23.829-23.829"/>
<path fill="#8CC63E" d="M205.879,84.486L181.17,59.777c-10.086-10.086-10.086-26.591,0-36.677l1.158-1.158l0.772-0.772
	c10.086-10.086,26.591-10.086,36.677,0l24.709,24.709"/>
<path fill="none" stroke="#FFFFFF" stroke-width="6" stroke-linecap="round" stroke-linejoin="round" stroke-miterlimit="10" d="
	M186.382,28.312l0.598-0.598c8.281-8.281,21.796-7.894,30.077,0.387l15.286,15.286"/>
<path fill="none" stroke="#8CC63E" stroke-width="6" stroke-linecap="round" stroke-linejoin="round" stroke-miterlimit="10" d="
	M263.403,99.245l-0.598,0.598c-8.281,8.281-21.796,7.894-30.077-0.387L215.442,82.17"/>
<path fill="#FFFFFF" stroke="#8CC63E" stroke-width="2.7299" stroke-miterlimit="10" d="M344.521,46.844l23.829,23.829
	c9.765,9.765,9.829,24.746,0.065,34.511l-1.121,1.121l-0.747,0.748c-9.765,9.765-25.494,10.448-35.259,0.683l-23.829-23.829"/>
<path fill="#8CC63E" d="M306.879,84.486L282.17,59.777c-10.086-10.086-10.086-26.591,0-36.677l1.158-1.158l0.772-0.772
	c10.086-10.086,26.591-10.086,36.677,0l24.709,24.709"/>
<path fill="none" stroke="#FFFFFF" stroke-width="6" stroke-linecap="round" stroke-linejoin="round" stroke-miterlimit="10" d="
	M287.382,28.312l0.598-0.598c8.281-8.281,21.796-7.894,30.077,0.387l15.286,15.286"/>
<path fill="none" stroke="#8CC63E" stroke-width="6" stroke-linecap="round" stroke-linejoin="round" stroke-miterlimit="10" d="
	M364.403,99.245l-0.598,0.598c-8.281,8.281-21.796,7.894-30.077-0.387L316.442,82.17"/>
<path fill="#FFFFFF" stroke="#8CC63E" stroke-width="2.7299" stroke-miterlimit="10" d="M445.521,46.844l23.829,23.829
	c9.765,9.765,9.829,24.746,0.065,34.511l-1.121,1.121l-0.747,0.748c-9.765,9.765-25.494,10.448-35.259,0.683l-23.829-23.829"/>
<path fill="#8CC63E" d="M407.879,84.486L383.17,59.777c-10.086-10.086-10.086-26.591,0-36.677l1.158-1.158l0.772-0.772
	c10.086-10.086,26.591-10.086,36.677,0l24.709,24.709"/>
<path fill="none" stroke="#FFFFFF" stroke-width="6" stroke-linecap="round" stroke-linejoin="round" stroke-miterlimit="10" d="
	M388.382,28.312l0.598-0.598c8.281-8.281,21.796-7.894,30.077,0.387l15.286,15.286"/>
<path fill="none" stroke="#8CC63E" stroke-width="6" stroke-linecap="round" stroke-linejoin="round" stroke-miterlimit="10" d="
	M465.403,99.245l-0.598,0.598c-8.281,8.281-21.796,7.894-30.077-0.387L417.442,82.17"/>
<polyline fill="none" stroke="#8CC63E" stroke-width="15" stroke-linecap="round" stroke-linejoin="round" stroke-miterlimit="10" points="
	30.5,73 30.5,150.5 99.5,150.5 99.5,73 "/>
<path fill="none" stroke="#8CC63E" stroke-width="15" stroke-linecap="round" stroke-linejoin="round" stroke-miterlimit="10" d="
	M136.5,158c0,0,0,24.918,0,34.625v3.07c0,19.414-15.135,36.805-34.549,36.805h-1.535c-19.414,0-35.916-17.392-35.916-36.805v-3.07
	c0-9.707,0-34.625,0-34.625"/>
<circle fill="#FFFFFF" stroke="#8CC63E" stroke-width="10.4869" stroke-linecap="round" stroke-linejoin="round" stroke-miterlimit="10" cx="137.248" cy="152.724" r="20.974"/>
<circle fill="#8CC63E" cx="137.248" cy="152.724" r="8.39"/>
<polyline fill="none" stroke="#8CC63E" stroke-width="6" stroke-miterlimit="10" points="31,70 31,22 41,22 "/>
<polyline fill="none" stroke="#8CC63E" stroke-width="6" stroke-miterlimit="10" points="100,70 100,22 90,22 "/>
<rect x="81" y="10" fill="#8CC63E" width="9" height="23"/>
<rect x="41" y="10" fill="#8CC63E" width="10" height="23"/>
<path fill="#8CC63E" d="M473.206,230.58c0,3.806-3.085,6.89-6.89,6.89H331.684c-3.806,0-6.89-3.085-6.89-6.89V132.42
	c0-3.806,3.085-6.89,6.89-6.89h134.631c3.806,0,6.89,3.085,6.89,6.89V230.58z"/>
<path fill="#FFFFFF" stroke="#8CC63E" stroke-miterlimit="10" d="M463.5,221.813c0,3.141-2.546,5.687-5.687,5.687H336.187
	c-3.141,0-5.687-2.546-5.687-5.687v-80.627c0-3.141,2.546-5.687,5.687-5.687h121.627c3.141,0,5.687,2.546,5.687,5.687v80.627H463.5z
	"/>
<path fill="#8CC63E" d="M337,216.478c0,3.05-2.472,5.522-5.522,5.522h-5.956c-3.05,0-5.522-2.472-5.522-5.522v-68.956
	c0-3.05,2.472-5.522,5.522-5.522h5.956c3.05,0,5.522,2.472,5.522,5.522V216.478z"/>
<circle fill="#8CC63E" cx="320.044" cy="181.778" r="11.044"/>
<circle fill="#FFFFFF" stroke="#8CC63E" stroke-width="0.4602" stroke-miterlimit="10" cx="320.044" cy="181.778" r="4.909"/>
<g>
	
		<line fill="none" stroke="#8CC63E" stroke-width="5.5255" stroke-linecap="round" stroke-miterlimit="10" x1="351" y1="218" x2="351" y2="145"/>
	
		<line fill="none" stroke="#8CC63E" stroke-width="5.5255" stroke-linecap="round" stroke-miterlimit="10" x1="368.098" y1="218" x2="368.098" y2="145"/>
	
		<line fill="none" stroke="#8CC63E" stroke-width="5.5255" stroke-linecap="round" stroke-miterlimit="10" x1="386.417" y1="218" x2="386.417" y2="145"/>
	
		<line fill="none" stroke="#8CC63E" stroke-width="5.5255" stroke-linecap="round" stroke-miterlimit="10" x1="403.514" y1="218" x2="403.514" y2="145"/>
	
		<line fill="none" stroke="#8CC63E" stroke-width="5.5255" stroke-linecap="round" stroke-miterlimit="10" x1="421.833" y1="218" x2="421.833" y2="145"/>
</g>
<line fill="none" stroke="#8CC63E" stroke-width="5" stroke-linecap="round" stroke-miterlimit="10" x1="440.5" y1="218" x2="440.5" y2="170.734"/>
<path fill="#8CC63E" d="M261,234.349c0,5.33-4.321,9.651-9.651,9.651h-30.698c-5.33,0-9.651-4.321-9.651-9.651v-99.698
	c0-5.33,4.321-9.651,9.651-9.651h30.698c5.33,0,9.651,4.321,9.651,9.651V234.349z"/>
<path fill="#8CC63E" d="M295,200.349c0,5.33-4.321,9.651-9.651,9.651h-99.698c-5.33,0-9.651-4.321-9.651-9.651v-30.698
	c0-5.33,4.321-9.651,9.651-9.651h99.698c5.33,0,9.651,4.321,9.651,9.651V200.349z"/>
</svg>
