<?xml version="1.0" encoding="utf-8"?>
<!-- Generator: Adobe Illustrator 17.0.0, SVG Export Plug-In . SVG Version: 6.00 Build 0)  -->
<!DOCTYPE svg PUBLIC "-//W3C//DTD SVG 1.1//EN" "http://www.w3.org/Graphics/SVG/1.1/DTD/svg11.dtd">
<svg version="1.1" id="Layer_1" xmlns="http://www.w3.org/2000/svg" xmlns:xlink="http://www.w3.org/1999/xlink" x="0px" y="0px"
	 width="288px" height="55.5px" viewBox="0 0 288 55.5" enable-background="new 0 0 288 55.5" xml:space="preserve">
<g>
	<path fill="#FFFFFF" d="M11.929,30.789v-0.086c0-6.577,5.029-11.993,12.079-11.993c3.482,0,5.932,0.946,7.866,2.579
		c0.43,0.344,1.032,1.118,1.032,2.235c0,1.633-1.333,2.923-2.966,2.923c-0.86,0-1.504-0.344-1.891-0.645
		c-1.161-0.903-2.364-1.461-4.084-1.461c-3.267,0-5.588,2.88-5.588,6.276v0.086c0,3.525,2.278,6.362,5.846,6.362
		c1.719,0,3.052-0.602,4.298-1.59c0.344-0.258,0.989-0.602,1.762-0.602c1.547,0,2.751,1.247,2.751,2.794
		c0,0.86-0.387,1.547-0.946,2.063c-1.934,1.762-4.384,2.966-8.167,2.966C17.001,42.695,11.929,37.365,11.929,30.789z"/>
	<path fill="#FFFFFF" d="M36.211,35.56v-0.086c0-5.029,3.826-7.35,9.285-7.35c2.321,0,3.998,0.387,5.631,0.946v-0.387
		c0-2.708-1.676-4.212-4.943-4.212c-1.805,0-3.267,0.258-4.513,0.645c-0.387,0.129-0.645,0.172-0.946,0.172
		c-1.504,0-2.708-1.161-2.708-2.665c0-1.161,0.731-2.149,1.762-2.536c2.063-0.774,4.298-1.204,7.35-1.204
		c3.568,0,6.147,0.946,7.78,2.579c1.719,1.719,2.493,4.255,2.493,7.35V39.3c0,1.762-1.418,3.138-3.181,3.138
		c-1.891,0-3.138-1.333-3.138-2.708v-0.043c-1.59,1.762-3.783,2.923-6.963,2.923C39.779,42.609,36.211,40.116,36.211,35.56z
		 M51.213,34.056v-1.161c-1.118-0.516-2.579-0.86-4.17-0.86c-2.794,0-4.513,1.118-4.513,3.181v0.086
		c0,1.762,1.461,2.794,3.568,2.794C49.15,38.096,51.213,36.42,51.213,34.056z"/>
	<path fill="#FFFFFF" d="M63.89,35.646V24.728h-0.215c-1.547,0-2.794-1.247-2.794-2.794c0-1.547,1.247-2.794,2.794-2.794h0.215
		v-2.88c0-1.805,1.461-3.267,3.267-3.267c1.805,0,3.267,1.461,3.267,3.267v2.88h2.88c1.547,0,2.794,1.247,2.794,2.794
		c0,1.547-1.247,2.794-2.794,2.794h-2.88v9.843c0,1.504,0.645,2.235,2.106,2.235c0.215,0,0.645-0.043,0.774-0.043
		c1.461,0,2.708,1.204,2.708,2.708c0,1.161-0.774,2.106-1.676,2.45c-1.204,0.473-2.321,0.645-3.74,0.645
		C66.598,42.566,63.89,40.976,63.89,35.646z"/>
	<path fill="#FFFFFF" d="M79.619,28.854c0-1.719,1.418-3.138,3.138-3.138h7.479c1.719,0,3.138,1.418,3.138,3.138
		s-1.418,3.138-3.138,3.138h-7.479C81.037,31.992,79.619,30.574,79.619,28.854z"/>
	<path fill="#FFFFFF" d="M99.303,24.728h-0.258c-1.504,0-2.708-1.161-2.708-2.665c0-1.504,1.204-2.708,2.708-2.708h0.258v-1.461
		c0-2.536,0.645-4.384,1.848-5.588s2.966-1.805,5.287-1.805c1.032,0,1.934,0.043,2.665,0.172c1.118,0.172,2.235,1.161,2.235,2.622
		s-1.204,2.708-2.665,2.708h-0.559c-1.504,0-2.364,0.774-2.364,2.493v0.903h2.837c1.504,0,2.708,1.161,2.708,2.665
		c0,1.504-1.204,2.665-2.708,2.665h-2.751v14.443c0,1.805-1.461,3.267-3.267,3.267c-1.805,0-3.267-1.461-3.267-3.267V24.728z"/>
	<path fill="#FFFFFF" d="M112.582,35.56v-0.086c0-5.029,3.826-7.35,9.285-7.35c2.321,0,3.998,0.387,5.631,0.946v-0.387
		c0-2.708-1.676-4.212-4.943-4.212c-1.805,0-3.267,0.258-4.513,0.645c-0.387,0.129-0.645,0.172-0.946,0.172
		c-1.504,0-2.708-1.161-2.708-2.665c0-1.161,0.731-2.149,1.762-2.536c2.063-0.774,4.298-1.204,7.35-1.204
		c3.568,0,6.147,0.946,7.78,2.579c1.719,1.719,2.493,4.255,2.493,7.35V39.3c0,1.762-1.418,3.138-3.181,3.138
		c-1.891,0-3.138-1.333-3.138-2.708v-0.043c-1.59,1.762-3.783,2.923-6.963,2.923C116.15,42.609,112.582,40.116,112.582,35.56z
		 M127.584,34.056v-1.161c-1.118-0.516-2.579-0.86-4.17-0.86c-2.794,0-4.513,1.118-4.513,3.181v0.086
		c0,1.762,1.461,2.794,3.568,2.794C125.52,38.096,127.584,36.42,127.584,34.056z"/>
	<path fill="#FFFFFF" d="M138.282,30.789v-0.086c0-6.577,5.029-11.993,12.079-11.993c3.482,0,5.932,0.946,7.866,2.579
		c0.43,0.344,1.032,1.118,1.032,2.235c0,1.633-1.333,2.923-2.966,2.923c-0.86,0-1.504-0.344-1.891-0.645
		c-1.161-0.903-2.364-1.461-4.084-1.461c-3.267,0-5.588,2.88-5.588,6.276v0.086c0,3.525,2.278,6.362,5.846,6.362
		c1.719,0,3.052-0.602,4.298-1.59c0.344-0.258,0.989-0.602,1.762-0.602c1.547,0,2.751,1.247,2.751,2.794
		c0,0.86-0.387,1.547-0.946,2.063c-1.934,1.762-4.384,2.966-8.167,2.966C143.354,42.695,138.282,37.365,138.282,30.789z"/>
	<path fill="#FFFFFF" d="M165.015,35.646V24.728H164.8c-1.547,0-2.794-1.247-2.794-2.794c0-1.547,1.247-2.794,2.794-2.794h0.215
		v-2.88c0-1.805,1.461-3.267,3.267-3.267c1.805,0,3.267,1.461,3.267,3.267v2.88h2.88c1.547,0,2.794,1.247,2.794,2.794
		c0,1.547-1.247,2.794-2.794,2.794h-2.88v9.843c0,1.504,0.645,2.235,2.106,2.235c0.215,0,0.645-0.043,0.774-0.043
		c1.461,0,2.708,1.204,2.708,2.708c0,1.161-0.774,2.106-1.676,2.45c-1.204,0.473-2.321,0.645-3.74,0.645
		C167.723,42.566,165.015,40.976,165.015,35.646z"/>
	<path fill="#FFFFFF" d="M181.174,39.987c-0.688-0.43-1.247-1.204-1.247-2.235c0-1.461,1.118-2.579,2.579-2.579
		c0.473,0,0.946,0.129,1.29,0.344c2.192,1.376,4.384,2.063,6.233,2.063c1.891,0,2.751-0.688,2.751-1.719v-0.086
		c0-1.418-2.235-1.891-4.771-2.665c-3.224-0.946-6.878-2.45-6.878-6.921v-0.086c0-4.685,3.783-7.307,8.425-7.307
		c2.407,0,4.9,0.645,7.135,1.762c0.946,0.473,1.547,1.333,1.547,2.45c0,1.461-1.161,2.579-2.622,2.579
		c-0.473,0-0.774-0.086-1.204-0.301c-1.848-0.903-3.611-1.461-4.986-1.461c-1.59,0-2.407,0.688-2.407,1.59v0.086
		c0,1.29,2.192,1.891,4.685,2.751c3.224,1.075,6.964,2.622,6.964,6.835v0.086c0,5.115-3.826,7.436-8.812,7.436
		C187.02,42.609,183.968,41.793,181.174,39.987z"/>
	<path fill="#FFFFFF" d="M206.575,35.044c2.149,0,3.74,1.59,3.74,3.654v0.086c0,2.063-1.59,3.654-3.74,3.654
		c-2.149,0-3.74-1.59-3.74-3.654v-0.086C202.835,36.635,204.425,35.044,206.575,35.044z"/>
	<path fill="#FFFFFF" d="M213.666,30.789v-0.086c0-6.577,5.029-11.993,12.079-11.993c3.482,0,5.932,0.946,7.866,2.579
		c0.43,0.344,1.032,1.118,1.032,2.235c0,1.633-1.333,2.923-2.966,2.923c-0.86,0-1.504-0.344-1.891-0.645
		c-1.161-0.903-2.364-1.461-4.084-1.461c-3.267,0-5.588,2.88-5.588,6.276v0.086c0,3.525,2.278,6.362,5.846,6.362
		c1.719,0,3.052-0.602,4.298-1.59c0.344-0.258,0.989-0.602,1.762-0.602c1.547,0,2.751,1.247,2.751,2.794
		c0,0.86-0.387,1.547-0.946,2.063c-1.934,1.762-4.384,2.966-8.167,2.966C218.738,42.695,213.666,37.365,213.666,30.789z"/>
	<path fill="#FFFFFF" d="M237.949,35.56v-0.086c0-5.029,3.826-7.35,9.285-7.35c2.321,0,3.998,0.387,5.631,0.946v-0.387
		c0-2.708-1.676-4.212-4.943-4.212c-1.805,0-3.267,0.258-4.513,0.645c-0.387,0.129-0.645,0.172-0.946,0.172
		c-1.504,0-2.708-1.161-2.708-2.665c0-1.161,0.731-2.149,1.762-2.536c2.063-0.774,4.298-1.204,7.35-1.204
		c3.568,0,6.147,0.946,7.78,2.579c1.719,1.719,2.493,4.255,2.493,7.35V39.3c0,1.762-1.418,3.138-3.181,3.138
		c-1.891,0-3.138-1.333-3.138-2.708v-0.043c-1.59,1.762-3.783,2.923-6.963,2.923C241.516,42.609,237.949,40.116,237.949,35.56z
		 M252.95,34.056v-1.161c-1.118-0.516-2.579-0.86-4.17-0.86c-2.794,0-4.513,1.118-4.513,3.181v0.086
		c0,1.762,1.461,2.794,3.568,2.794C250.887,38.096,252.95,36.42,252.95,34.056z"/>
</g>
</svg>
