<?xml version="1.0" encoding="utf-8"?>
<!-- Generator: Adobe Illustrator 17.0.0, SVG Export Plug-In . SVG Version: 6.00 Build 0)  -->
<!DOCTYPE svg PUBLIC "-//W3C//DTD SVG 1.1//EN" "http://www.w3.org/Graphics/SVG/1.1/DTD/svg11.dtd">
<svg version="1.1" id="Layer_1" xmlns="http://www.w3.org/2000/svg" xmlns:xlink="http://www.w3.org/1999/xlink" x="0px" y="0px"
	 width="50px" height="50px" viewBox="0 0 50 50" enable-background="new 0 0 50 50" xml:space="preserve">
<g>
	<defs>
		<circle id="SVGID_1_" cx="-30.708" cy="26.745" r="12.586"/>
	</defs>
	<clipPath id="SVGID_2_">
		<use xlink:href="#SVGID_1_"  overflow="visible"/>
	</clipPath>
	<g clip-path="url(#SVGID_2_)">
		<path fill="#FFFFFF" d="M-18.289,22.099c0-4.4-3.6-8-8-8h-9.263c-4.4,0-8,3.6-8,8v9.449c0,4.4,3.6,8,8,8h9.263c4.4,0,8-3.6,8-8
			V22.099z"/>
	</g>
</g>
<g>
	<defs>
		<circle id="SVGID_3_" cx="25" cy="24.72" r="22.911"/>
	</defs>
	<clipPath id="SVGID_4_">
		<use xlink:href="#SVGID_3_"  overflow="visible"/>
	</clipPath>
	<g clip-path="url(#SVGID_4_)">
		<path fill="#FFFFFF" d="M47.994,9.702c0-4.4-3.6-8-8-8H10.006c-4.4,0-8,3.6-8,8v30.326c0,4.4,3.6,8,8,8h29.987c4.4,0,8-3.6,8-8
			V9.702z"/>
	</g>
</g>
<path fill="#8DC63F" d="M22.673,48.504V29.305h-5.072v-6.909h5.072c0,0,0-2.835,0-5.907c0-4.64,2.998-8.896,9.912-8.896
	c2.797,0,4.863,0.267,4.863,0.267l-0.166,6.451c0,0-2.109-0.02-4.41-0.02c-2.491,0-2.891,1.149-2.891,3.054c0,1.508,0-3.211,0,5.051
	h7.503l-0.331,6.909h-7.172v19.199H22.673z"/>
<g>
	<g>
		<g>
			<path fill="#8DC63F" d="M-31.225,24.617c0.574-1.79,1.274-2.951,2.081-3.79c0.6-0.625,0.912-0.824,0.556-0.136
				c0.155-0.124,0.378-0.289,0.554-0.377c0.976-0.46,0.908-0.074,0.236,0.339c1.836-0.658,1.77,0.181-0.169,0.594
				c1.584,0.029,3.271,1.041,3.757,3.185c0.066,0.296-0.016,0.27,0.289,0.323c0.655,0.113,1.274,0.11,1.877-0.083
				c-0.066,0.444-0.65,0.732-1.567,0.921c-0.339,0.072-0.41,0.055-0.002,0.144c0.5,0.114,1.058,0.145,1.652,0.115
				c-0.462,0.531-1.195,0.801-2.105,0.812c-0.568,2.078-1.869,3.565-3.513,4.496c-3.86,2.195-9.481,1.875-12.3-2.106
				c1.85,1.447,4.589,1.767,6.623-0.252c-1.331,0-1.677-1-0.62-1.536c-1-0.01-1.637-0.327-2.011-0.902
				c-0.143-0.216-0.144-0.233,0.088-0.399c0.254-0.185,0.599-0.267,0.958-0.292c-1.034-0.298-1.667-0.84-1.886-1.566
				c-0.073-0.24-0.084-0.227,0.159-0.289c0.24-0.059,0.547-0.091,0.822-0.105c-0.813-0.495-1.299-1.1-1.422-1.767
				c-0.114-0.632,0.005-0.469,0.478-0.289C-34.577,22.465-32.472,23.335-31.225,24.617"/>
		</g>
	</g>
</g>
</svg>
