<?xml version="1.0" encoding="utf-8"?>
<!-- Generator: Adobe Illustrator 17.0.0, SVG Export Plug-In . SVG Version: 6.00 Build 0)  -->
<!DOCTYPE svg PUBLIC "-//W3C//DTD SVG 1.1//EN" "http://www.w3.org/Graphics/SVG/1.1/DTD/svg11.dtd">
<svg version="1.1" id="Layer_1" xmlns="http://www.w3.org/2000/svg" xmlns:xlink="http://www.w3.org/1999/xlink" x="0px" y="0px"
	 width="40px" height="37px" viewBox="0 0 40 37" enable-background="new 0 0 40 37" xml:space="preserve">
<path fill="#FFFFFF" d="M32.62,10.364c0,1.142-0.925,2.067-2.067,2.067H9.333c-1.141,0-2.067-0.925-2.067-2.067l0,0
	c0-1.141,0.926-2.067,2.067-2.067h21.22C31.695,8.297,32.62,9.223,32.62,10.364L32.62,10.364z"/>
<path fill="#FFFFFF" d="M32.62,27.354c0,1.142-0.925,2.066-2.067,2.066H9.333c-1.141,0-2.067-0.924-2.067-2.066l0,0
	c0-1.142,0.926-2.067,2.067-2.067h21.22C31.695,25.286,32.62,26.213,32.62,27.354L32.62,27.354z"/>
<path fill="#FFFFFF" d="M32.62,18.833c0,1.142-0.925,2.067-2.067,2.067H9.333c-1.141,0-2.067-0.925-2.067-2.067l0,0
	c0-1.141,0.926-2.067,2.067-2.067h21.22C31.695,16.766,32.62,17.691,32.62,18.833L32.62,18.833z"/>
<path fill="#FFFFFF" d="M39.956,73.294c0,3.703-3.003,6.706-6.706,6.706H6.705c-3.703,0-6.706-3.003-6.706-6.706V46.749
	c0-3.703,3.003-6.707,6.706-6.707H33.25c3.703,0,6.706,3.003,6.706,6.707V73.294z"/>
<path fill="#8CC63E" d="M32.62,51.354c0,1.145-0.925,2.068-2.067,2.068H9.333c-1.141,0-2.067-0.927-2.067-2.068l0,0
	c0-1.141,0.926-2.063,2.067-2.063h21.22C31.695,49.287,32.62,50.213,32.62,51.354L32.62,51.354z"/>
<path fill="#8CC63E" d="M32.62,68.344c0,1.143-0.925,2.065-2.067,2.065H9.333c-1.141,0-2.067-0.925-2.067-2.065l0,0
	c0-1.142,0.926-2.066,2.067-2.066h21.22C31.695,66.275,32.62,67.202,32.62,68.344L32.62,68.344z"/>
<path d="M39.96,87.25v33.25H0V87.25c0-3.7,3-6.71,6.71-6.71h26.54C36.95,80.54,39.96,83.54,39.96,87.25z"/>
<path fill="#8CC63E" d="M28.909,108.799c-0.81,0.81-2.117,0.809-2.925,0.001L10.98,93.795c-0.807-0.807-0.806-2.117,0.001-2.924l0,0
	c0.807-0.807,2.114-0.805,2.92,0.002l15.005,15.005C29.716,106.684,29.716,107.992,28.909,108.799L28.909,108.799z"/>
<path fill="#8CC63E" d="M28.907,90.873c0.809,0.808,0.807,2.114-0.001,2.922L13.901,108.8c-0.807,0.807-2.115,0.808-2.922,0.001l0,0
	c-0.807-0.808-0.807-2.116,0-2.923l15.004-15.005C26.791,90.064,28.101,90.065,28.907,90.873L28.907,90.873z"/>
<path fill="#8CC63E" d="M32.62,59.822c0,1.142-0.925,2.068-2.067,2.068H9.333c-1.141,0-2.067-0.93-2.067-2.068l0,0
	c0-1.141,0.926-2.066,2.067-2.066h21.22C31.695,57.756,32.62,58.682,32.62,59.822L32.62,59.822z"/>
</svg>
