<?xml version="1.0" encoding="utf-8"?>
<!-- Generator: Adobe Illustrator 17.0.0, SVG Export Plug-In . SVG Version: 6.00 Build 0)  -->
<!DOCTYPE svg PUBLIC "-//W3C//DTD SVG 1.1//EN" "http://www.w3.org/Graphics/SVG/1.1/DTD/svg11.dtd">
<svg version="1.1" id="Layer_1" xmlns="http://www.w3.org/2000/svg" xmlns:xlink="http://www.w3.org/1999/xlink" x="0px" y="0px"
	 width="50px" height="50px" viewBox="0 0 50 50" enable-background="new 0 0 50 50" xml:space="preserve">
<g>
	<defs>
		<circle id="SVGID_1_" cx="24.881" cy="25.667" r="22.792"/>
	</defs>
	<clipPath id="SVGID_2_">
		<use xlink:href="#SVGID_1_"  overflow="visible"/>
	</clipPath>
	<g clip-path="url(#SVGID_2_)">
		<path fill="#FFFFFF" d="M47.371,10.768c0-4.4-3.6-8-8-8H9.623c-4.4,0-8,3.6-8,8v30.085c0,4.4,3.6,8,8,8h29.748c4.4,0,8-3.6,8-8
			V10.768z"/>
	</g>
</g>
<g>
	<g>
		<g>
			<path fill="#8DC63F" d="M23.945,21.814c1.039-3.241,2.308-5.343,3.769-6.863c1.086-1.132,1.651-1.493,1.007-0.246
				c0.28-0.224,0.685-0.524,1.003-0.683c1.768-0.834,1.644-0.134,0.427,0.614c3.325-1.191,3.204,0.327-0.305,1.076
				c2.869,0.053,5.923,1.885,6.803,5.768c0.12,0.536-0.028,0.488,0.523,0.585c1.186,0.205,2.308,0.199,3.398-0.149
				c-0.119,0.805-1.177,1.326-2.837,1.669c-0.614,0.131-0.742,0.099-0.004,0.261c0.906,0.206,1.917,0.263,2.991,0.209
				c-0.838,0.961-2.164,1.45-3.812,1.47c-1.028,3.762-3.384,6.455-6.362,8.142c-6.989,3.975-17.168,3.396-22.273-3.814
				c3.351,2.62,8.31,3.2,11.994-0.457c-2.41,0-3.036-1.81-1.122-2.782c-1.812-0.018-2.964-0.593-3.641-1.633
				c-0.258-0.392-0.26-0.422,0.16-0.723c0.459-0.335,1.085-0.483,1.734-0.528c-1.873-0.539-3.018-1.522-3.415-2.836
				c-0.132-0.434-0.153-0.411,0.287-0.524c0.434-0.107,0.991-0.166,1.488-0.191c-1.472-0.896-2.352-1.991-2.575-3.2
				c-0.206-1.145,0.009-0.85,0.865-0.523C17.875,17.917,21.688,19.492,23.945,21.814"/>
		</g>
	</g>
</g>
</svg>
