<?xml version="1.0" encoding="utf-8"?>
<!-- Generator: Adobe Illustrator 17.0.0, SVG Export Plug-In . SVG Version: 6.00 Build 0)  -->
<!DOCTYPE svg PUBLIC "-//W3C//DTD SVG 1.1//EN" "http://www.w3.org/Graphics/SVG/1.1/DTD/svg11.dtd">
<svg version="1.1" id="Layer_1" xmlns="http://www.w3.org/2000/svg" xmlns:xlink="http://www.w3.org/1999/xlink" x="0px" y="0px"
	 width="612px" height="792px" viewBox="0 0 612 792" style="enable-background:new 0 0 612 792;" xml:space="preserve">
<style type="text/css">
	.st0{fill:none;stroke:#8DC63F;stroke-width:20;stroke-miterlimit:10;}
	.st1{fill:#FFFFFF;stroke:#8DC63F;stroke-width:19.76;stroke-miterlimit:10;}
	.st2{fill:none;stroke:#8DC63F;stroke-width:6.135;stroke-linecap:round;stroke-linejoin:round;stroke-miterlimit:10;}
	.st3{fill:#8DC63F;}
	.st4{fill:none;stroke:#8DC63F;stroke-width:19.76;stroke-miterlimit:10;}
</style>
<g>
	<path class="st0" d="M244.76,217.93c-4.57,3.05-7.81,1.08-7.18-4.38l9.86-86.05c0.63-5.46,4.77-7.27,9.2-4.02l53.71,39.38
		c4.44,3.25,4.32,8.41-0.25,11.46L244.76,217.93z"/>
</g>
<g>
	<path class="st0" d="M411.24,199.63c5.03,2.22,8.66-0.45,8.06-5.91l-7.25-66.21c-0.6-5.47-4.72-7.28-9.15-4.03l-53.71,39.38
		c-4.44,3.25-3.95,7.73,1.09,9.94L411.24,199.63z"/>
</g>
<ellipse class="st1" cx="330.53" cy="245.26" rx="96.97" ry="89.66"/>
<path class="st2" d="M298.44,273.38c0,8.86,7.18,16.04,16.04,16.04s16.04-7.18,16.04-16.04c0,8.86,7.18,16.04,16.04,16.04
	c8.86,0,16.04-7.18,16.04-16.04"/>
<g>
	<path class="st3" d="M343,253.93c2.75,0,3.68,1.82,2.06,4.04l-11.59,15.93c-1.62,2.22-4.27,2.22-5.88,0L316,257.97
		c-1.62-2.22-0.69-4.04,2.06-4.04H343z"/>
</g>
<circle class="st4" cx="302.5" cy="230" r="9.5"/>
<circle class="st4" cx="359.5" cy="229" r="9.5"/>
</svg>
