<?xml version="1.0" encoding="utf-8"?>
<!-- Generator: Adobe Illustrator 17.0.0, SVG Export Plug-In . SVG Version: 6.00 Build 0)  -->
<!DOCTYPE svg PUBLIC "-//W3C//DTD SVG 1.1//EN" "http://www.w3.org/Graphics/SVG/1.1/DTD/svg11.dtd">
<svg version="1.1" id="Layer_1" xmlns="http://www.w3.org/2000/svg" xmlns:xlink="http://www.w3.org/1999/xlink" x="0px" y="0px"
	 width="50px" height="50px" viewBox="0 0 50 50" enable-background="new 0 0 50 50" xml:space="preserve">
<circle fill="#FFFFFF" cx="25" cy="24.881" r="22.873"/>
<path fill="#8DC63F" d="M39.734,20.077c0,1.892-1.826,3.426-4.081,3.426h-20.41c-2.251,0-4.079-1.532-4.079-3.426v-8.571
	c0-1.894,1.828-3.43,4.079-3.43h20.408c2.251,0,4.079,1.535,4.079,3.43L39.734,20.077L39.734,20.077z"/>
<g>
	<path fill="#FFFFFF" d="M14.334,9.695h2.328l1.501,4.883h0.145l1.433-4.883h2.346l-2.69,7.148v5.069h-2.311V17.07L14.334,9.695z"/>
	<path fill="#FFFFFF" d="M21.984,14.96c0-0.699,0.276-1.255,0.827-1.667c0.555-0.415,1.298-0.62,2.229-0.62
		c0.851,0,1.546,0.22,2.088,0.655c0.545,0.436,0.816,0.996,0.816,1.684v4.654c0,0.772-0.265,1.376-0.8,1.817
		c-0.533,0.439-1.265,0.659-2.196,0.659c-0.897,0-1.618-0.227-2.156-0.679c-0.538-0.452-0.807-1.061-0.807-1.828L21.984,14.96
		L21.984,14.96z M24.096,19.799c0,0.249,0.071,0.441,0.22,0.575c0.145,0.134,0.355,0.203,0.626,0.203
		c0.278,0,0.498-0.07,0.661-0.207c0.165-0.137,0.247-0.328,0.247-0.571v-4.907c0-0.196-0.082-0.355-0.253-0.478
		c-0.167-0.121-0.384-0.179-0.657-0.179c-0.251,0-0.456,0.059-0.609,0.179c-0.157,0.121-0.236,0.28-0.236,0.478v4.907H24.096z"/>
	<path fill="#FFFFFF" d="M35.545,12.899v9.013h-2.052v-0.994c-0.381,0.368-0.772,0.646-1.182,0.838
		c-0.406,0.19-0.809,0.289-1.19,0.289c-0.476,0-0.831-0.134-1.076-0.403c-0.24-0.267-0.359-0.672-0.359-1.206v-7.538h2.053v6.907
		c0,0.216,0.038,0.372,0.124,0.467c0.088,0.095,0.227,0.143,0.419,0.143c0.154,0,0.342-0.064,0.571-0.19
		c0.234-0.126,0.445-0.289,0.639-0.487v-6.839H35.545z"/>
</g>
<g>
	<path fill="#8DC63F" d="M18.503,24.934H11.51v2.141h2.355v12.61h2.279v-12.61h2.359V24.934L18.503,24.934z M22.226,37.065
		c-0.189,0.242-0.399,0.436-0.626,0.586c-0.227,0.156-0.414,0.232-0.566,0.232c-0.189,0-0.328-0.059-0.41-0.176
		c-0.088-0.113-0.128-0.304-0.128-0.564v-8.34h-2.022v9.096c0,0.648,0.117,1.133,0.353,1.457c0.238,0.322,0.591,0.487,1.058,0.487
		c0.381,0,0.772-0.113,1.177-0.346c0.401-0.229,0.789-0.569,1.164-1.012v1.199h2.024V28.801h-2.024
		C22.226,28.801,22.226,37.065,22.226,37.065z M30.064,28.664c-0.315,0-0.626,0.093-0.933,0.26
		c-0.306,0.176-0.591,0.425-0.869,0.761v-4.755h-2.039v14.755h2.039v-0.836c0.267,0.329,0.556,0.575,0.866,0.738
		c0.311,0.159,0.664,0.236,1.058,0.236c0.6,0,1.058-0.201,1.374-0.611c0.317-0.412,0.476-1.005,0.476-1.781v-6.036
		c0-0.886-0.174-1.563-0.509-2.026C31.19,28.9,30.705,28.664,30.064,28.664z M29.956,37.134c0,0.348-0.06,0.602-0.178,0.75
		c-0.115,0.154-0.3,0.231-0.545,0.231c-0.174,0-0.337-0.038-0.494-0.117c-0.152-0.077-0.311-0.203-0.479-0.382v-6.782
		c0.139-0.146,0.278-0.254,0.423-0.326c0.139-0.07,0.278-0.108,0.425-0.108c0.271,0,0.485,0.099,0.63,0.286
		c0.143,0.19,0.216,0.469,0.216,0.835v5.615H29.956z M39.513,34.502v-2.771c0-1.03-0.247-1.823-0.747-2.374
		c-0.496-0.555-1.202-0.829-2.132-0.829c-0.904,0-1.643,0.302-2.213,0.889c-0.573,0.597-0.858,1.365-0.858,2.31v4.883
		c0,1.049,0.26,1.874,0.78,2.471c0.522,0.593,1.237,0.895,2.139,0.895c1.008,0,1.764-0.282,2.271-0.847
		c0.505-0.567,0.76-1.406,0.76-2.52v-0.818h-2.085v0.758c0,0.642-0.066,1.056-0.198,1.243s-0.37,0.282-0.705,0.282
		c-0.322,0-0.549-0.112-0.681-0.333c-0.134-0.221-0.199-0.619-0.199-1.19v-2.052h3.867C39.513,34.499,39.513,34.502,39.513,34.502z
		 M35.644,31.711c0-0.459,0.07-0.785,0.21-0.979c0.139-0.198,0.372-0.295,0.692-0.295c0.309,0,0.533,0.097,0.675,0.295
		c0.139,0.194,0.209,0.523,0.209,0.979v1.102h-1.788v-1.102H35.644z"/>
	<path fill="#8DC63F" d="M18.503,25.094H11.51v2.141h2.355v12.61h2.279v-12.61h2.359V25.094L18.503,25.094z M22.226,37.222
		c-0.189,0.24-0.399,0.432-0.626,0.584c-0.227,0.156-0.414,0.231-0.566,0.231c-0.189,0-0.328-0.057-0.41-0.174
		c-0.088-0.115-0.128-0.302-0.128-0.562v-8.344h-2.022v9.098c0,0.648,0.117,1.129,0.353,1.457c0.238,0.32,0.591,0.481,1.058,0.481
		c0.381,0,0.772-0.113,1.177-0.344c0.401-0.234,0.789-0.567,1.164-1.014v1.201h2.024v-10.88h-2.024
		C22.226,28.955,22.226,37.222,22.226,37.222z M30.064,28.825c-0.315,0-0.626,0.088-0.933,0.26
		c-0.306,0.172-0.591,0.423-0.869,0.758v-4.751h-2.039v14.753h2.039v-0.838c0.267,0.333,0.556,0.578,0.866,0.738
		c0.311,0.157,0.664,0.24,1.058,0.24c0.6,0,1.058-0.205,1.374-0.613c0.317-0.412,0.476-1.008,0.476-1.779v-6.036
		c0-0.889-0.174-1.567-0.509-2.03C31.19,29.056,30.705,28.825,30.064,28.825z M29.956,37.291c0,0.348-0.06,0.598-0.178,0.749
		c-0.115,0.152-0.3,0.232-0.545,0.232c-0.174,0-0.337-0.038-0.494-0.119c-0.152-0.077-0.311-0.201-0.479-0.379v-6.781
		c0.139-0.15,0.278-0.262,0.423-0.335c0.139-0.07,0.278-0.106,0.425-0.106c0.271,0,0.485,0.099,0.63,0.286
		c0.143,0.19,0.216,0.469,0.216,0.835v5.619H29.956z M39.513,34.66v-2.771c0-1.03-0.247-1.821-0.747-2.377
		c-0.496-0.549-1.202-0.824-2.132-0.824c-0.904,0-1.643,0.298-2.213,0.891c-0.573,0.595-0.858,1.365-0.858,2.31v4.881
		c0,1.047,0.26,1.872,0.78,2.469c0.522,0.595,1.237,0.895,2.139,0.895c1.008,0,1.764-0.282,2.271-0.849
		c0.505-0.562,0.76-1.402,0.76-2.518v-0.811h-2.085v0.754c0,0.642-0.066,1.052-0.198,1.243c-0.132,0.187-0.37,0.28-0.705,0.28
		c-0.322,0-0.549-0.112-0.681-0.331c-0.134-0.223-0.199-0.617-0.199-1.188V34.66H39.513z M35.644,31.867
		c0-0.456,0.07-0.781,0.21-0.977c0.139-0.196,0.372-0.298,0.692-0.298c0.309,0,0.533,0.102,0.675,0.298
		c0.139,0.196,0.209,0.525,0.209,0.977v1.104h-1.788v-1.104H35.644z"/>
</g>
</svg>
